<svg xmlns="http://www.w3.org/2000/svg" width="128" height="64.26" viewBox="0 0 128 64.26"><g transform="translate(0.025)"><g transform="translate(-0.025 0)"><path d="M.972,34.3c0,.614,1.433.827,2.254.544s4.23-.748,4.23-.748.753-4.645,3.826-4.851c5.534-.205,6.353-4.3,6.353-4.3.753,12.909-6.289,16.533-6.289,16.533C10.806,52.385,26.609,61.618,26.854,61.76c-9.359-14.959-4.712-23.022-.2-29.1S44.208,20.5,46.393,19.815s5.875-3.962,7.583-9.433A22.238,22.238,0,0,0,54.593,0c-.066,2.459-6.011,7.858-9.084,11.351S29.386,24.388,24.057,29.991s-5.461,15.3-5.461,15.3c-1.913-11.545,6.62-19.265,7.651-20.22-1.911-4.851-6.762-7.173-9.155-8.129,5.261-.205,11.343,6.213,11.343,6.213l1.986-1.432c-7.8-9.223-16.54-7.719-18.114-7.514-1.3-2.325-4.645-3.212-5.19-2.734,1.844,2.317,1.092,2.734,1.364,2.87-.679.136-1.158-.331-2.163-.409.415.086,1.278,2.876,1.344,3.414-.682.273-6.62,12.093-7.447,13.736S.972,33.68.972,34.3Zm1.364-4.851c1.158-1.776,2.39-4.164,3.825-6.145-.076.165-2.527,5.2-2.595,6.211S2.746,31.5,2.064,31.5s-.892-.276.268-2.052Z" transform="translate(0.025 0)" fill="#fff"/><path d="M193.766,27.45s-4.611,9.433-21.417,16.09S133.923,60.89,152.778,87.12c0,0-9.291-18.991,4.235-28.692,6.012-4.372,22.271-7.514,28.829-13.116S194.723,31.857,193.766,27.45Z" transform="translate(-121.495 -22.907)" fill="#fff"/><path d="M348.307,104a28.369,28.369,0,0,1-16.942,13.662s-.684,6.7-3.005,7.515C328.36,125.184,346.394,124.5,348.307,104Z" transform="translate(-274.196 -86.788)" fill="#fff"/><path d="M222.954,194s-6.289,1.264-9.7,2.272-9.018,4.965-11.2,9.751a20.459,20.459,0,0,1,6.011-1.911C211.2,203.7,218.035,205.343,222.954,194Z" transform="translate(-168.721 -161.894)" fill="#fff"/><path d="M215.658,310.944v10.113h-3.192V310.944H209V307.75h10.113v3.194Z" transform="translate(-174.514 -256.818)" fill="#fff"/><path d="M292.949,316.513l2.866,4.545H292.23l-2.784-4.238h-1.519v4.238H284.74V307.75h6.367a4.518,4.518,0,0,1,4.748,4.546A4.42,4.42,0,0,1,292.949,316.513Zm-5.021-2.56h3.153a2.583,2.583,0,0,0,1.044-.184,1.686,1.686,0,0,0,.472-.348,1.873,1.873,0,0,0,.389-1.125,1.715,1.715,0,0,0-.43-1.147,1.76,1.76,0,0,0-1.453-.533h-3.174Z" transform="translate(-237.759 -256.818)" fill="#fff"/><path d="M368.954,307.75v13.308H365.76V307.75Z" transform="translate(-305.4 -256.818)" fill="#fff"/><path d="M410.046,312.3a4.476,4.476,0,0,1-4.789,4.523H402.1v4.238H398.91V307.75H405.3A4.518,4.518,0,0,1,410.046,312.3Zm-2.865,0a1.665,1.665,0,0,0-1.883-1.68H402.1v3.336h3.153a2.686,2.686,0,0,0,1.064-.184,2.07,2.07,0,0,0,.472-.348A1.873,1.873,0,0,0,407.182,312.3Z" transform="translate(-333.093 -256.818)" fill="#fff"/><path d="M465.112,319.194H460.1l-.962,1.863H455.45l7.164-13.308,7.145,13.308h-3.686Zm-1.3-2.5-1.208-2.333L461.38,316.7Z" transform="translate(-380.312 -256.818)" fill="#fff"/><path d="M545.886,317.559a5.958,5.958,0,0,1-1.678-1.084,4.4,4.4,0,0,1-1.352-3.522l2.813.041v-.022a2.611,2.611,0,0,0,.331,1.249,2.527,2.527,0,0,0,2.272.92c1.842,0,2.661-.47,2.661-1.248,0-.827-1.044-1.324-2.744-1.514a10.334,10.334,0,0,1-2.7-.662,4.7,4.7,0,0,1-1.7-1.147,3.431,3.431,0,0,1-.922-2.375,3.826,3.826,0,0,1,.922-2.578A5.782,5.782,0,0,1,548.334,304c2.742,0,4.094,1.208,4.75,2.211a5.131,5.131,0,0,1,.736,2.539h-2.813v.02a1.833,1.833,0,0,0-.306-1.043,2.8,2.8,0,0,0-2.375-.922c-1.187,0-2.559.308-2.559,1.208,0,.859.9,1.372,2.722,1.576a6.6,6.6,0,0,1,4.422,1.9,3.628,3.628,0,0,1,.9,2.395,3.556,3.556,0,0,1-.88,2.5,4.253,4.253,0,0,1-1.82,1.167,8.836,8.836,0,0,1-2.845.389A6.639,6.639,0,0,1,545.886,317.559Z" transform="translate(-453.283 -253.689)" fill="#fff"/><path d="M636.173,307.75v7.677a5.692,5.692,0,0,1-11.383-.045V307.75h2.969v7.636a2.413,2.413,0,0,0,.88,1.966,2.547,2.547,0,0,0,2.742.553,3.236,3.236,0,0,0,.963-.574,2.649,2.649,0,0,0,.634-.818,2.347,2.347,0,0,0,.225-1.086V307.75Z" transform="translate(-521.75 -256.818)" fill="#fff"/><path d="M712.394,317.593a5.958,5.958,0,0,1-1.678-1.084,4.4,4.4,0,0,1-1.35-3.522l2.8.041v-.022a2.611,2.611,0,0,0,.331,1.249,2.532,2.532,0,0,0,2.272.92c1.842,0,2.661-.47,2.661-1.248,0-.827-1.044-1.324-2.742-1.514a10.331,10.331,0,0,1-2.7-.662,4.7,4.7,0,0,1-1.7-1.14,3.429,3.429,0,0,1-.92-2.375,3.826,3.826,0,0,1,.92-2.578,5.784,5.784,0,0,1,4.545-1.619c2.744,0,4.094,1.208,4.75,2.211a5.131,5.131,0,0,1,.736,2.539h-2.808v.02a1.842,1.842,0,0,0-.308-1.043,2.8,2.8,0,0,0-2.375-.922c-1.187,0-2.559.308-2.559,1.208,0,.859.9,1.372,2.722,1.576a6.6,6.6,0,0,1,4.422,1.9,3.628,3.628,0,0,1,.9,2.395,3.557,3.557,0,0,1-.88,2.5,4.253,4.253,0,0,1-1.82,1.167,8.83,8.83,0,0,1-2.845.389,6.641,6.641,0,0,1-2.377-.389Z" transform="translate(-592.321 -253.722)" fill="#fff"/></g></g></svg>